{"title":"Joy Ride - Radio Killer (2001).DVDrip.XviD - Italian English.Ac3","uid":11859902,"size":1785892017,"categoryP":"video","categoryS":"movies","magnet":"?xt=urn:btih:a2f568489dce920da63cf5b5f4d6c19bde6e0f74&amp;dn=Joy+Ride+-+Radio+Killer+%282001%29.DVDrip.XviD+-+Italian+English.Ac3&amp;tr=udp%3A%2F%2Ftracker.openbittorrent.com%3A80&amp;tr=udp%3A%2F%2Fopen.demonii.com%3A1337&amp;tr=udp%3A%2F%2Ftracker.coppersurfer.tk%3A6969&amp;tr=udp%3A%2F%2Fexodus.desync.com%3A6969","seeders":10,"leechers":3,"uploader":"robbyrs4","files":3,"time":1430240484,"description":"Joy Ride - Radio Killer (2001).DVDrip.XviD - Italian English.Ac3.5.1.Sub.Ita.MIRCrew\n\n[center]\n\n[color=red][b][img]http://s19.postimg.org/9qdjr7p77/Original_release_2.png[/img]\n\n[u]NO FOUND ONLY ORIGINAL RELEASE[/u]\n\nRadio Killer - Joy Ride (2001)\n\n[img]http://i.imgur.com/7laC0w7.png[/img]\n\n\n[URL=http://www.imdb.com/title/tt0206314/][IMG]http://www.userlogos.org/files/logos/Sucka/imdb_new.png[/IMG][/URL]  \n\n[img]http://s19.postimg.org/vz5tzn42b/1_scheda.png[/img]\n\nTitolo originale \tJoy Ride\nLingua originale \tInglese\nPaese di produzione \tUSA\nAnno \t2001\nDurata \t98 min\nRapporto \t2,35:1\nGenere \tthriller\nRegia \tJohn Dahl\nSceneggiatura \tClay Tarver, J.J. Abrams\nProduttore \tJ.J. Abrams, Chris Moore\nFotografia \tJeff Jur\nMontaggio \tEric L. Beason, Scott Chestnut, Todd E. Miller, Glen Scantlebury\nMusiche \tMarco Beltrami\n\n\n[img]http://s19.postimg.org/q8fnlww2b/1_cast.png[/img]\n\n\n \n    Paul Walker: Lewis Thomas\n    Steve Zahn: Fuller Thomas\n    Leelee Sobieski: Venna\n    Jessica Bowman: Charlotte\n\nDoppiatori italiani\n\n    Marco Vivio: Lewis Thomas\n    Nanni Baldini: Fuller Thomas\n    Barbara De Bortoli: Venna\n    Ennio Coltorti: Chiodo Arrugginito\n\n  \n[img]http://s19.postimg.org/okgi79i6r/1_trama.png[/img]. \n\nLewis Thomas intraprende un viaggio con l'intento di andare a trovare i genitori, ma prima ha in progetto di andare a prendere l'amica d'infanzia Venna Wilcox, per cui ha una inconfessata cotta da anni. Lungo la strada si unisce a lui Fuller Thomas, suo fratello, appena rilasciato dopo qualche mese di prigione per ubriachezza molesta.......\n\n[img]http://s19.postimg.org/fzn6g380j/1_story.png[/img]\n\nThree young people on a road trip from Colorado to New Jersey talk to a trucker on their CB radio, then must escape when he turns out to be a psychotic killer.......\n\n[img]http://extraimago.com/images/2015/04/28/vlcsnap-2015-04-28-16h51m00s11.png[/img]\n[img]http://extraimago.com/images/2015/04/28/vlcsnap-2015-04-28-16h51m18s228.png[/img]\n[img]http://extraimago.com/images/2015/04/28/vlcsnap-2015-04-28-16h51m27s58.png[/img]\n\n[IMG]http://img153.imageshack.us/img153/3158/restateinseedblood.gif[/img]\n\n\n[img]http://imgur.com/lvhU6.gif[/img]\n\n\n[img]http://s19.postimg.org/a2jaz9qvn/1_dati.png[/img]\n\n\n[spoiler]\nGeneral\nComplete name                            : Radio Killer (2001).ita.eng.sub.itaRadio Killer (2001).ita.eng.sub.ita.avi\nFormat                                   : AVI\nFormat/Info                              : Audio Video Interleave\nFile size                                : 1.66 GiB\nDuration                                 : 1h 33mn\nOverall bit rate                         : 2 554 Kbps\nWriting application                      : VirtualDubMod 1.5.4.1 (build 2178/release)\nWriting library                          : VirtualDubMod build 2178/release\n\nVideo\nID                                       : 0\nFormat                                   : MPEG-4 Visual\nFormat profile                           : Advanced Simple@L5\nFormat settings, BVOP                    : No\nFormat settings, QPel                    : No\nFormat settings, GMC                     : No warppoints\nFormat settings, Matrix                  : Custom\nCodec ID                                 : XVID\nCodec ID/Hint                            : XviD\nDuration                                 : 1h 33mn\nBit rate                                 : 1 649 Kbps\nWidth                                    : 720 pixels\nHeight                                   : 304 pixels\nDisplay aspect ratio                     : 2.35:1\nFrame rate                               : 25.000 fps\nColor space                              : YUV\nChroma subsampling                       : 4:2:0\nBit depth                                : 8 bits\nScan type                                : Progressive\nCompression mode                         : Lossy\nBits/(Pixel*Frame)                       : 0.301\nStream size                              : 1.07 GiB (65%)\nWriting library                          : XviD 64\n\nAudio #1\nID                                       : 1\nFormat                                   : AC-3\nFormat/Info                              : Audio Coding 3\nMode extension                           : CM (complete main)\nCodec ID                                 : 2000\nDuration                                 : 1h 33mn\nBit rate mode                            : Constant\nBit rate                                 : 448 Kbps\nChannel(s)                               : 6 channels\nChannel positions                        : Front: L C R, Side: L R, LFE\nSampling rate                            : 48.0 KHz\nBit depth                                : 16 bits\nCompression mode                         : Lossy\nStream size                              : 298 MiB (18%)\nAlignment                                : Split accross interleaves\nInterleave, duration                     : 96 ms (2.40 video frames)\nInterleave, preload duration             : 96 ms\nLanguage                                 : Italian\n\nAudio #2\nID                                       : 2\nFormat                                   : AC-3\nFormat/Info                              : Audio Coding 3\nMode extension                           : CM (complete main)\nCodec ID                                 : 2000\nDuration                                 : 1h 33mn\nBit rate mode                            : Constant\nBit rate                                 : 448 Kbps\nChannel(s)                               : 6 channels\nChannel positions                        : Front: L C R, Side: L R, LFE\nSampling rate                            : 48.0 KHz\nBit depth                                : 16 bits\nCompression mode                         : Lossy\nStream size                              : 298 MiB (18%)\nAlignment                                : Split accross interleaves\nInterleave, duration                     : 96 ms (2.40 video frames)\nInterleave, preload duration             : 96 ms\nLanguage                                 : English\n\n\n[/spoiler]\n\n[/color][/b][/center]","torrent":{"xt":"urn:btih:a2f568489dce920da63cf5b5f4d6c19bde6e0f74","amp;dn":"Joy+Ride+-+Radio+Killer+%282001%29.DVDrip.XviD+-+Italian+English.Ac3","amp;tr":["udp%3A%2F%2Ftracker.openbittorrent.com%3A80","udp%3A%2F%2Fopen.demonii.com%3A1337","udp%3A%2F%2Ftracker.coppersurfer.tk%3A6969","udp%3A%2F%2Fexodus.desync.com%3A6969"],"infoHash":"a2f568489dce920da63cf5b5f4d6c19bde6e0f74","infoHashBuffer":{"type":"Buffer","data":[162,245,104,72,157,206,146,13,166,60,245,181,244,214,193,155,222,110,15,116]},"announce":[],"urlList":[]}}